<svg width="161" height="161" viewBox="0 0 161 161" fill="none" xmlns="http://www.w3.org/2000/svg">
<path d="M72.7097 18.1774V7.79032C72.7097 5.7242 73.5304 3.7427 74.9914 2.28173C76.4524 0.820764 78.4339 0 80.5 0C82.5661 0 84.5476 0.820764 86.0086 2.28173C87.4696 3.7427 88.2903 5.7242 88.2903 7.79032V18.1774C88.2903 20.2435 87.4696 22.225 86.0086 23.686C84.5476 25.147 82.5661 25.9677 80.5 25.9677C78.4339 25.9677 76.4524 25.147 74.9914 23.686C73.5304 22.225 72.7097 20.2435 72.7097 18.1774ZM124.645 80.5C124.645 89.2311 122.056 97.7661 117.205 105.026C112.355 112.285 105.46 117.944 97.3936 121.285C89.3271 124.626 80.451 125.5 71.8877 123.797C63.3244 122.094 55.4585 117.889 49.2847 111.715C43.1108 105.542 38.9064 97.6756 37.2031 89.1123C35.4997 80.549 36.3739 71.6728 39.7152 63.6064C43.0564 55.5399 48.7146 48.6454 55.9743 43.7946C63.2339 38.9439 71.7689 36.3548 80.5 36.3548C92.2043 36.3669 103.426 41.0217 111.702 49.2979C119.978 57.5742 124.633 68.7957 124.645 80.5ZM109.065 80.5C109.065 74.8505 107.389 69.3278 104.251 64.6304C101.112 59.933 96.6507 56.2718 91.4312 54.1098C86.2117 51.9478 80.4683 51.3822 74.9273 52.4843C69.3864 53.5865 64.2967 56.307 60.3018 60.3018C56.307 64.2967 53.5865 69.3864 52.4843 74.9273C51.3822 80.4683 51.9478 86.2117 54.1098 91.4312C56.2718 96.6507 59.933 101.112 64.6304 104.251C69.3278 107.389 74.8505 109.065 80.5 109.065C88.0731 109.056 95.3336 106.044 100.689 100.689C106.044 95.3336 109.056 88.0731 109.065 80.5ZM30.8432 41.8665C31.5678 42.5911 32.4281 43.166 33.3749 43.5582C34.3217 43.9503 35.3365 44.1522 36.3613 44.1522C37.3861 44.1522 38.4009 43.9503 39.3477 43.5582C40.2945 43.166 41.1548 42.5911 41.8795 41.8665C42.6041 41.1418 43.179 40.2815 43.5711 39.3347C43.9633 38.3879 44.1652 37.3732 44.1652 36.3483C44.1652 35.3235 43.9633 34.3088 43.5711 33.3619C43.179 32.4151 42.6041 31.5549 41.8795 30.8302L34.0891 23.0399C32.6256 21.5764 30.6407 20.7542 28.571 20.7542C26.5013 20.7542 24.5164 21.5764 23.0529 23.0399C21.5894 24.5034 20.7672 26.4883 20.7672 28.558C20.7672 30.6277 21.5894 32.6127 23.0529 34.0762L30.8432 41.8665ZM30.8432 119.121L23.0529 126.911C22.3282 127.635 21.7534 128.496 21.3612 129.443C20.969 130.389 20.7672 131.404 20.7672 132.429C20.7672 133.454 20.969 134.469 21.3612 135.415C21.7534 136.362 22.3282 137.222 23.0529 137.947C24.5164 139.411 26.5013 140.233 28.571 140.233C29.5958 140.233 30.6106 140.031 31.5574 139.639C32.5042 139.247 33.3645 138.672 34.0891 137.947L41.8795 130.157C43.343 128.693 44.1652 126.708 44.1652 124.639C44.1652 122.569 43.343 120.584 41.8795 119.121C40.416 117.657 38.431 116.835 36.3613 116.835C34.2916 116.835 32.3067 117.657 30.8432 119.121ZM124.645 44.1452C125.668 44.146 126.682 43.9451 127.628 43.5542C128.573 43.1632 129.433 42.5897 130.157 41.8665L137.947 34.0762C138.672 33.3515 139.247 32.4912 139.639 31.5444C140.031 30.5976 140.233 29.5828 140.233 28.558C140.233 27.5332 140.031 26.5184 139.639 25.5716C139.247 24.6248 138.672 23.7645 137.947 23.0399C137.222 22.3152 136.362 21.7404 135.415 21.3482C134.469 20.956 133.454 20.7542 132.429 20.7542C131.404 20.7542 130.389 20.956 129.443 21.3482C128.496 21.7404 127.635 22.3152 126.911 23.0399L119.121 30.8302C118.025 31.9198 117.277 33.3108 116.974 34.8262C116.671 36.3416 116.825 37.913 117.417 39.3405C118.01 40.7679 119.013 41.987 120.3 42.8426C121.587 43.6981 123.1 44.1516 124.645 44.1452ZM130.157 119.133C128.693 117.67 126.708 116.848 124.639 116.848C122.569 116.848 120.584 117.67 119.121 119.133C117.657 120.597 116.835 122.582 116.835 124.652C116.835 126.721 117.657 128.706 119.121 130.17L126.911 137.96C128.374 139.424 130.359 140.246 132.429 140.246C134.499 140.246 136.484 139.424 137.947 137.96C139.411 136.497 140.233 134.512 140.233 132.442C140.233 130.372 139.411 128.387 137.947 126.924L130.157 119.133ZM25.9677 80.5C25.9677 78.4339 25.147 76.4524 23.686 74.9914C22.225 73.5304 20.2435 72.7097 18.1774 72.7097H7.79032C5.7242 72.7097 3.7427 73.5304 2.28173 74.9914C0.820764 76.4524 0 78.4339 0 80.5C0 82.5661 0.820764 84.5476 2.28173 86.0086C3.7427 87.4696 5.7242 88.2903 7.79032 88.2903H18.1774C20.2435 88.2903 22.225 87.4696 23.686 86.0086C25.147 84.5476 25.9677 82.5661 25.9677 80.5ZM80.5 135.032C78.4339 135.032 76.4524 135.853 74.9914 137.314C73.5304 138.775 72.7097 140.756 72.7097 142.823V153.21C72.7097 155.276 73.5304 157.257 74.9914 158.718C76.4524 160.179 78.4339 161 80.5 161C82.5661 161 84.5476 160.179 86.0086 158.718C87.4696 157.257 88.2903 155.276 88.2903 153.21V142.823C88.2903 140.756 87.4696 138.775 86.0086 137.314C84.5476 135.853 82.5661 135.032 80.5 135.032ZM153.21 72.7097H142.823C140.756 72.7097 138.775 73.5304 137.314 74.9914C135.853 76.4524 135.032 78.4339 135.032 80.5C135.032 82.5661 135.853 84.5476 137.314 86.0086C138.775 87.4696 140.756 88.2903 142.823 88.2903H153.21C155.276 88.2903 157.257 87.4696 158.718 86.0086C160.179 84.5476 161 82.5661 161 80.5C161 78.4339 160.179 76.4524 158.718 74.9914C157.257 73.5304 155.276 72.7097 153.21 72.7097Z" fill="#FFD233"/>
</svg>
